<?xml version="1.0" encoding="utf-8"?>
<!-- Generator: Adobe Illustrator 18.0.0, SVG Export Plug-In . SVG Version: 6.00 Build 0)  -->
<!DOCTYPE svg PUBLIC "-//W3C//DTD SVG 1.1//EN" "http://www.w3.org/Graphics/SVG/1.1/DTD/svg11.dtd">
<svg version="1.1" id="Capa_1" xmlns="http://www.w3.org/2000/svg" xmlns:xlink="http://www.w3.org/1999/xlink" x="0px" y="0px"
	 viewBox="0 0 692.1 446.1" enable-background="new 0 0 692.1 446.1" xml:space="preserve">
<g>
	<g>
		<g>
			<g>
				<path fill="#DFCFFA" d="M362.6,221.9c0,74.1-52.4,124.2-130.1,124.2C154.4,346,102,295.9,102,221.9
					c0-74.5,52.4-123.7,130.5-123.7C310.2,98.1,362.6,147.4,362.6,221.9z M172,222.8c0,39.7,24.4,66.8,60.5,66.8
					c35.7,0,60.5-27.1,60.5-66.8s-24.8-66.8-60.5-66.8C196.4,155.9,172,183,172,222.8z"/>
				<path fill="#DFCFFA" d="M513.9,314.9c-16.3,20.3-42.4,31.6-76.3,31.6c-51.9,0-83.5-31.6-83.5-75.9c0-45.6,33-72.7,92.6-73.2
					h66.8V193c0-25.7-17.2-40.6-50.6-40.6c-21.7,0-47,7.2-72.3,21.2l-21.7-47.9c36.1-18.1,67.3-28,109.7-28
					c65,0,102.5,32.5,103,87.2l0.5,158.5h-68.2V314.9z M513.4,260.2v-21.7h-54.6c-26.6,0-39.7,8.1-39.7,27.5
					c0,18.5,14.5,30.7,37.9,30.7C486.3,296.8,509.4,281,513.4,260.2z"/>
			</g>
		</g>
		<path fill="#DFCFFA" d="M564.4,398.3H127.7c-42.7,0-77.4-34.7-77.4-77.4V125.1c0-42.7,34.7-77.4,77.4-77.4h436.7
			c42.7,0,77.4,34.7,77.4,77.4v195.8C641.8,363.6,607.1,398.3,564.4,398.3z M127.7,82.2c-23.7,0-42.9,19.2-42.9,42.9v195.8
			c0,23.7,19.2,42.9,42.9,42.9h436.7c23.7,0,42.9-19.2,42.9-42.9V125.1c0-23.7-19.2-42.9-42.9-42.9H127.7z"/>
	</g>
</g>
</svg>
