<?xml version="1.0" encoding="utf-8"?>
<!-- Generator: Adobe Illustrator 18.0.0, SVG Export Plug-In . SVG Version: 6.00 Build 0)  -->
<!DOCTYPE svg PUBLIC "-//W3C//DTD SVG 1.1//EN" "http://www.w3.org/Graphics/SVG/1.1/DTD/svg11.dtd">
<svg version="1.1" id="Capa_1" xmlns="http://www.w3.org/2000/svg" xmlns:xlink="http://www.w3.org/1999/xlink" x="0px" y="0px"
	 viewBox="0 0 1348.7 446.1" enable-background="new 0 0 1348.7 446.1" xml:space="preserve">
<g>
	<g>
		<g>
			<g>
				<path fill="#26003D" d="M361.5,221.9c0,74.1-52.4,124.2-130.1,124.2c-78.1,0-130.5-50.1-130.5-124.2
					c0-74.5,52.4-123.7,130.5-123.7C309.1,98.1,361.5,147.4,361.5,221.9z M170.9,222.8c0,39.7,24.4,66.8,60.5,66.8
					c35.7,0,60.5-27.1,60.5-66.8s-24.8-66.8-60.5-66.8C195.3,155.9,170.9,183,170.9,222.8z"/>
				<path fill="#26003D" d="M512.7,314.9c-16.3,20.3-42.4,31.6-76.3,31.6c-51.9,0-83.5-31.6-83.5-75.9c0-45.6,33-72.7,92.6-73.2
					h66.8V193c0-25.7-17.2-40.6-50.6-40.6c-21.7,0-47,7.2-72.3,21.2l-21.7-47.9c36.1-18.1,67.3-28,109.7-28
					c65,0,102.5,32.5,103,87.2l0.5,158.5h-68.2V314.9z M512.3,260.2v-21.7h-54.6c-26.6,0-39.7,8.1-39.7,27.5
					c0,18.5,14.5,30.7,37.9,30.7C485.2,296.8,508.2,281,512.3,260.2z"/>
			</g>
		</g>
		<path fill="#26003D" d="M563.3,398.3H126.5c-42.7,0-77.4-34.7-77.4-77.4V125.1c0-42.7,34.7-77.4,77.4-77.4h436.7
			c42.7,0,77.4,34.7,77.4,77.4v195.8C640.6,363.6,605.9,398.3,563.3,398.3z M126.5,82.2c-23.7,0-42.9,19.2-42.9,42.9v195.8
			c0,23.7,19.2,42.9,42.9,42.9h436.7c23.7,0,42.9-19.2,42.9-42.9V125.1c0-23.7-19.2-42.9-42.9-42.9H126.5z"/>
	</g>
	<g>
		<g>
			<path fill="#26003D" d="M759.9,170.2c0,23-16.3,38.6-40.5,38.6c-24.3,0-40.6-15.6-40.6-38.6c0-23.2,16.3-38.5,40.6-38.5
				C743.6,131.7,759.9,147,759.9,170.2z M700.6,170.5c0,12.4,7.6,20.8,18.8,20.8c11.1,0,18.8-8.4,18.8-20.8
				c0-12.4-7.7-20.8-18.8-20.8C708.2,149.7,700.6,158.1,700.6,170.5z"/>
			<path fill="#26003D" d="M842.7,160.5V208H821v-41.2c0-9.6-5.6-15.5-14.9-15.5c-10.8,0.1-17.3,8.3-17.3,19.4V208h-21.6v-75.6h21.6
				v13.2c5.3-9.4,14.3-13.9,26.1-14.1C831.9,131.6,842.7,142.8,842.7,160.5z"/>
			<path fill="#26003D" d="M855.1,208V103.8h21.6V208H855.1z"/>
			<path fill="#26003D" d="M913.8,110.9c0,7-4.8,12.1-11.7,12.1c-6.9,0-11.7-5.1-11.7-12.1c0-7,4.8-12.1,11.7-12.1
				C909,98.8,913.8,103.9,913.8,110.9z M891.3,208v-75.6h21.6V208H891.3z"/>
			<path fill="#26003D" d="M1002.2,160.5V208h-21.6v-41.2c0-9.6-5.6-15.5-14.9-15.5c-10.8,0.1-17.3,8.3-17.3,19.4V208h-21.6v-75.6
				h21.6v13.2c5.3-9.4,14.3-13.9,26.1-14.1C991.4,131.6,1002.2,142.8,1002.2,160.5z"/>
			<path fill="#26003D" d="M1083.4,176.8h-54.2c2.5,9.6,9.8,15.2,19.5,15.2c7.2,0,13.9-2.8,19.1-8l11.4,11.5
				c-7.6,8.4-18.7,13.3-32.3,13.3c-24.2,0-39.5-15.5-39.5-38.4c0-23.3,15.9-38.8,38.9-38.8C1072.9,131.7,1085.2,149.3,1083.4,176.8z
				 M1063.2,164c-0.3-10-6.7-16.4-16.7-16.4c-9.6,0-16,6.5-17.7,16.4H1063.2z"/>
			<path fill="#26003D" d="M1161.4,199.2c-5.1,6.3-13.2,9.8-23.7,9.8c-16.2,0-26-9.8-26-23.6c0-14.2,10.3-22.6,28.8-22.8h20.8v-1.4
				c0-8-5.3-12.6-15.7-12.6c-6.7,0-14.6,2.2-22.5,6.6l-6.7-14.9c11.2-5.6,20.9-8.7,34.1-8.7c20.2,0,31.9,10.1,32,27.1l0.1,49.3
				h-21.2V199.2z M1161.2,182.2v-6.7h-17c-8.3,0-12.4,2.5-12.4,8.6c0,5.8,4.5,9.6,11.8,9.6C1152.8,193.5,1160,188.6,1161.2,182.2z"
				/>
			<path fill="#26003D" d="M1215.9,146.1c5.2-9.3,13.8-14.3,25-14.5V152c-15.5-1.4-25,6.9-25,19.7V208h-21.6v-75.6h21.6V146.1z"/>
			<path fill="#26003D" d="M1299.5,203.8c-5.6,3.2-12.6,5.2-19.7,5.2c-13.5,0-23.7-7.7-23.7-23.3v-35h-10.5v-14.9h10.5V115h21.5
				v20.8h20.5v15h-20.5V182c0,6.3,2.7,8.9,7.3,8.7c2.8,0,6.2-1,10.1-2.8L1299.5,203.8z"/>
			<path fill="#26003D" d="M771,268v37.8c-10.4,7.6-26.3,12.8-39.9,12.8c-29.8,0-52.4-21.6-52.4-50.2c0-28.4,23-49.9,53.7-49.9
				c14.6,0,29.5,5.6,39.5,14.3l-12.5,15.9c-7.3-6.7-17.4-11-27-11c-17.4,0-30.9,13.3-30.9,30.6c0,17.4,13.6,30.8,31.1,30.8
				c5.9,0,12.9-2.1,19.3-5.3V268H771z"/>
			<path fill="#26003D" d="M826.8,308.7c-5.1,6.3-13.2,9.8-23.7,9.8c-16.2,0-26-9.8-26-23.6c0-14.2,10.3-22.6,28.8-22.8h20.8v-1.4
				c0-8-5.3-12.6-15.7-12.6c-6.7,0-14.6,2.2-22.5,6.6l-6.7-14.9c11.2-5.6,20.9-8.7,34.1-8.7c20.2,0,31.9,10.1,32,27.1l0.1,49.3
				h-21.2V308.7z M826.7,291.7V285h-17c-8.3,0-12.4,2.5-12.4,8.6c0,5.8,4.5,9.6,11.8,9.6C818.2,303.1,825.4,298.2,826.7,291.7z"/>
			<path fill="#26003D" d="M860.4,317.6V213.3H882v104.3H860.4z"/>
			<path fill="#26003D" d="M897.4,317.6V213.3H919v104.3H897.4z"/>
			<path fill="#26003D" d="M1003.2,286.4h-54.2c2.5,9.6,9.8,15.2,19.5,15.2c7.2,0,13.9-2.8,19.1-8l11.4,11.5
				c-7.6,8.4-18.7,13.3-32.3,13.3c-24.2,0-39.5-15.5-39.5-38.4c0-23.3,15.9-38.8,38.9-38.8C992.6,241.3,1005,258.8,1003.2,286.4z
				 M982.9,273.6c-0.3-10-6.7-16.4-16.7-16.4c-9.6,0-16,6.5-17.7,16.4H982.9z"/>
			<path fill="#26003D" d="M1032.1,255.6c5.2-9.3,13.8-14.3,25-14.5v20.4c-15.5-1.4-25,6.9-25,19.7v36.4h-21.6V242h21.6V255.6z"/>
			<path fill="#26003D" d="M1108.9,326c-5.3,13.3-14.6,19.8-27.7,19.8c-8,0-14.3-2.2-20.5-7.3l9.1-15.6c3.4,2.8,6.3,4.1,9.8,4.1
				c4.5,0,7.9-2.2,10-6.7l2.1-4.2l-31.3-74h22.3l19.8,52l17.8-52h21.6L1108.9,326z"/>
		</g>
	</g>
</g>
</svg>
